<svg width="963" height="598" viewBox="0 0 963 598" fill="none" xmlns="http://www.w3.org/2000/svg">
<line x1="13.5" y1="591.041" x2="956.03" y2="591.041" stroke="#949494" stroke-width="13" stroke-linecap="round"/>
<path d="M14 591H677" stroke="#6D12C9" stroke-width="13" stroke-linecap="round"/>
<path d="M26.9375 562H14.0156V539.156H26.9375V542.312H17.75V548.531H26.3594V551.656H17.75V558.828H26.9375V562ZM50.9219 562H46.3438L35.1094 543.797H34.9844L35.0625 544.812C35.2083 546.75 35.2812 548.521 35.2812 550.125V562H31.8906V539.156H36.4219L47.625 557.266H47.7188C47.6979 557.026 47.6562 556.156 47.5938 554.656C47.5312 553.146 47.5 551.969 47.5 551.125V539.156H50.9219V562ZM66.2969 549.609H74.7031V561.078C73.3281 561.526 72.0052 561.844 70.7344 562.031C69.474 562.219 68.1094 562.312 66.6406 562.312C63.1823 562.312 60.5156 561.292 58.6406 559.25C56.7656 557.198 55.8281 554.307 55.8281 550.578C55.8281 546.901 56.8854 544.026 59 541.953C61.1146 539.87 64.026 538.828 67.7344 538.828C70.1198 538.828 72.3802 539.286 74.5156 540.203L73.2031 543.312C71.349 542.458 69.4948 542.031 67.6406 542.031C65.2031 542.031 63.276 542.797 61.8594 544.328C60.4427 545.859 59.7344 547.953 59.7344 550.609C59.7344 553.401 60.3698 555.526 61.6406 556.984C62.9219 558.432 64.7604 559.156 67.1562 559.156C68.3646 559.156 69.6562 559.005 71.0312 558.703V552.812H66.2969V549.609ZM80.2031 562V539.156H83.9375V558.797H93.6094V562H80.2031ZM97.5469 562V539.156H101.281V562H97.5469ZM120.5 555.797C120.5 557.828 119.766 559.422 118.297 560.578C116.828 561.734 114.802 562.312 112.219 562.312C109.635 562.312 107.521 561.911 105.875 561.109V557.578C106.917 558.068 108.021 558.453 109.188 558.734C110.365 559.016 111.458 559.156 112.469 559.156C113.948 559.156 115.036 558.875 115.734 558.312C116.443 557.75 116.797 556.995 116.797 556.047C116.797 555.193 116.474 554.469 115.828 553.875C115.182 553.281 113.849 552.578 111.828 551.766C109.745 550.922 108.276 549.958 107.422 548.875C106.568 547.792 106.141 546.49 106.141 544.969C106.141 543.062 106.818 541.562 108.172 540.469C109.526 539.375 111.344 538.828 113.625 538.828C115.812 538.828 117.99 539.307 120.156 540.266L118.969 543.312C116.938 542.458 115.125 542.031 113.531 542.031C112.323 542.031 111.406 542.297 110.781 542.828C110.156 543.349 109.844 544.042 109.844 544.906C109.844 545.5 109.969 546.01 110.219 546.438C110.469 546.854 110.88 547.25 111.453 547.625C112.026 548 113.057 548.495 114.547 549.109C116.224 549.807 117.453 550.458 118.234 551.062C119.016 551.667 119.589 552.349 119.953 553.109C120.318 553.87 120.5 554.766 120.5 555.797ZM142.938 562H139.188V551.703H128.656V562H124.922V539.156H128.656V548.5H139.188V539.156H142.938V562Z" fill="white"/>
<line x1="13.5" y1="182.815" x2="956.03" y2="182.815" stroke="#949494" stroke-width="13" stroke-linecap="round"/>
<path d="M14 182H395" stroke="#6D12C9" stroke-width="13" stroke-linecap="round"/>
<line x1="9.5" y1="451.041" x2="952.03" y2="451.041" stroke="#949494" stroke-width="13" stroke-linecap="round"/>
<path d="M10 450.541H219" stroke="#6D12C9" stroke-width="13" stroke-linecap="round"/>
<line x1="8.96277" y1="314.545" x2="951.493" y2="314.545" stroke="#949494" stroke-width="13" stroke-linecap="round"/>
<path d="M9 314H434" stroke="#6D12C9" stroke-width="13" stroke-linecap="round"/>
<path d="M23.0724 136.031C20.9266 136.031 19.2391 136.792 18.0099 138.312C16.7807 139.833 16.1661 141.932 16.1661 144.609C16.1661 147.411 16.7547 149.531 17.9318 150.969C19.1193 152.406 20.8328 153.125 23.0724 153.125C24.0411 153.125 24.9786 153.031 25.8849 152.844C26.7911 152.646 27.7338 152.396 28.713 152.094V155.297C26.9213 155.974 24.8901 156.312 22.6193 156.312C19.2755 156.312 16.7078 155.302 14.9161 153.281C13.1245 151.25 12.2286 148.349 12.2286 144.578C12.2286 142.203 12.6609 140.125 13.5255 138.344C14.4005 136.562 15.6609 135.198 17.3068 134.25C18.9526 133.302 20.8849 132.828 23.1036 132.828C25.437 132.828 27.5932 133.318 29.5724 134.297L28.2286 137.406C27.4578 137.042 26.6401 136.724 25.7755 136.453C24.9213 136.172 24.0203 136.031 23.0724 136.031ZM46.8068 149.797C46.8068 151.828 46.0724 153.422 44.6036 154.578C43.1349 155.734 41.1088 156.312 38.5255 156.312C35.9422 156.312 33.8276 155.911 32.1818 155.109V151.578C33.2234 152.068 34.3276 152.453 35.4943 152.734C36.6713 153.016 37.7651 153.156 38.7755 153.156C40.2547 153.156 41.3432 152.875 42.0411 152.312C42.7495 151.75 43.1036 150.995 43.1036 150.047C43.1036 149.193 42.7807 148.469 42.1349 147.875C41.4891 147.281 40.1557 146.578 38.1349 145.766C36.0516 144.922 34.5828 143.958 33.7286 142.875C32.8745 141.792 32.4474 140.49 32.4474 138.969C32.4474 137.062 33.1245 135.562 34.4786 134.469C35.8328 133.375 37.6505 132.828 39.9318 132.828C42.1193 132.828 44.2963 133.307 46.463 134.266L45.2755 137.312C43.2443 136.458 41.4318 136.031 39.838 136.031C38.6297 136.031 37.713 136.297 37.088 136.828C36.463 137.349 36.1505 138.042 36.1505 138.906C36.1505 139.5 36.2755 140.01 36.5255 140.438C36.7755 140.854 37.187 141.25 37.7599 141.625C38.3328 142 39.3641 142.495 40.8536 143.109C42.5307 143.807 43.7599 144.458 44.5411 145.062C45.3224 145.667 45.8953 146.349 46.2599 147.109C46.6245 147.87 46.8068 148.766 46.8068 149.797ZM64.4005 149.797C64.4005 151.828 63.6661 153.422 62.1974 154.578C60.7286 155.734 58.7026 156.312 56.1193 156.312C53.5359 156.312 51.4213 155.911 49.7755 155.109V151.578C50.8172 152.068 51.9213 152.453 53.088 152.734C54.2651 153.016 55.3588 153.156 56.3693 153.156C57.8484 153.156 58.937 152.875 59.6349 152.312C60.3432 151.75 60.6974 150.995 60.6974 150.047C60.6974 149.193 60.3745 148.469 59.7286 147.875C59.0828 147.281 57.7495 146.578 55.7286 145.766C53.6453 144.922 52.1766 143.958 51.3224 142.875C50.4682 141.792 50.0411 140.49 50.0411 138.969C50.0411 137.062 50.7182 135.562 52.0724 134.469C53.4266 133.375 55.2443 132.828 57.5255 132.828C59.713 132.828 61.8901 133.307 64.0568 134.266L62.8693 137.312C60.838 136.458 59.0255 136.031 57.4318 136.031C56.2234 136.031 55.3068 136.297 54.6818 136.828C54.0568 137.349 53.7443 138.042 53.7443 138.906C53.7443 139.5 53.8693 140.01 54.1193 140.438C54.3693 140.854 54.7807 141.25 55.3536 141.625C55.9266 142 56.9578 142.495 58.4474 143.109C60.1245 143.807 61.3536 144.458 62.1349 145.062C62.9161 145.667 63.4891 146.349 63.8536 147.109C64.2182 147.87 64.4005 148.766 64.4005 149.797ZM81.838 138.406C81.838 139.854 81.4161 141.062 80.5724 142.031C79.7286 142.99 78.5411 143.635 77.0099 143.969V144.094C78.8432 144.323 80.2182 144.896 81.1349 145.812C82.0516 146.719 82.5099 147.927 82.5099 149.438C82.5099 151.635 81.7338 153.333 80.1818 154.531C78.6297 155.719 76.4213 156.312 73.5568 156.312C71.0255 156.312 68.8901 155.901 67.1505 155.078V151.812C68.1193 152.292 69.1453 152.661 70.2286 152.922C71.312 153.182 72.3536 153.312 73.3536 153.312C75.1245 153.312 76.4474 152.984 77.3224 152.328C78.1974 151.672 78.6349 150.656 78.6349 149.281C78.6349 148.062 78.1505 147.167 77.1818 146.594C76.213 146.021 74.6922 145.734 72.6193 145.734H70.6349V142.75H72.6505C76.2963 142.75 78.1193 141.49 78.1193 138.969C78.1193 137.99 77.8016 137.234 77.1661 136.703C76.5307 136.172 75.5932 135.906 74.3536 135.906C73.4891 135.906 72.6557 136.031 71.8536 136.281C71.0516 136.521 70.1036 136.995 69.0099 137.703L67.213 135.141C69.3068 133.599 71.7391 132.828 74.5099 132.828C76.812 132.828 78.6088 133.323 79.9005 134.312C81.1922 135.302 81.838 136.667 81.838 138.406Z" fill="white"/>
<path d="M25.4818 288.842H21.7318V278.545H11.2006V288.842H7.46619V265.999H11.2006V275.342H21.7318V265.999H25.4818V288.842ZM39.3881 288.842H35.6537V269.202H28.9349V265.999H46.1068V269.202H39.3881V288.842ZM59.4974 288.842L52.8724 269.764H52.7474C52.9245 272.597 53.0131 275.254 53.0131 277.733V288.842H49.6224V265.999H54.8881L61.2318 284.17H61.3256L67.8568 265.999H73.1381V288.842H69.5443V277.545C69.5443 276.41 69.5704 274.931 69.6224 273.108C69.6849 271.285 69.737 270.181 69.7787 269.795H69.6537L62.7943 288.842H59.4974ZM79.1537 288.842V265.999H82.8881V285.639H92.5599V288.842H79.1537ZM102.638 274.577C104.94 274.577 106.763 275.186 108.107 276.405C109.451 277.624 110.122 279.285 110.122 281.389C110.122 283.827 109.357 285.733 107.826 287.108C106.305 288.472 104.138 289.155 101.326 289.155C98.7735 289.155 96.7683 288.743 95.3099 287.92V284.592C96.1537 285.071 97.1224 285.441 98.2162 285.702C99.3099 285.962 100.326 286.092 101.263 286.092C102.919 286.092 104.18 285.722 105.044 284.983C105.909 284.243 106.341 283.16 106.341 281.733C106.341 279.004 104.602 277.639 101.122 277.639C100.633 277.639 100.029 277.691 99.3099 277.795C98.5912 277.889 97.961 277.999 97.4193 278.124L95.7787 277.155L96.6537 265.999H108.529V269.264H99.8881L99.3724 274.92C99.737 274.858 100.18 274.785 100.701 274.702C101.232 274.618 101.878 274.577 102.638 274.577Z" fill="white"/>
<path d="M7.57556 428.375C6.55473 428.375 5.70056 428.245 5.01306 427.984V424.844C5.88806 425.062 6.64848 425.172 7.29431 425.172C9.33598 425.172 10.3568 423.88 10.3568 421.297V399.156H14.1068V421.172C14.1068 423.505 13.5495 425.286 12.4349 426.516C11.3308 427.755 9.71098 428.375 7.57556 428.375ZM34.2006 422L31.9193 415.656H23.1849L20.9506 422H17.0131L25.5599 399.062H29.6224L38.1693 422H34.2006ZM30.9349 412.438L28.7943 406.219C28.6381 405.802 28.4193 405.146 28.1381 404.25C27.8672 403.354 27.6797 402.698 27.5756 402.281C27.2943 403.562 26.8829 404.964 26.3412 406.484L24.2787 412.438H30.9349ZM54.2006 399.156H58.0756L50.0756 422H46.1381L38.1693 399.156H42.0131L46.7787 413.359C47.0287 414.036 47.2943 414.911 47.5756 415.984C47.8568 417.047 48.0391 417.839 48.1224 418.359C48.2579 417.568 48.4662 416.651 48.7474 415.609C49.0287 414.568 49.2579 413.797 49.4349 413.297L54.2006 399.156ZM75.2631 422L72.9818 415.656H64.2474L62.0131 422H58.0756L66.6224 399.062H70.6849L79.2318 422H75.2631ZM71.9974 412.438L69.8568 406.219C69.7006 405.802 69.4818 405.146 69.2006 404.25C68.9297 403.354 68.7422 402.698 68.6381 402.281C68.3568 403.562 67.9454 404.964 67.4037 406.484L65.3412 412.438H71.9974ZM95.4193 415.797C95.4193 417.828 94.6849 419.422 93.2162 420.578C91.7474 421.734 89.7214 422.312 87.1381 422.312C84.5547 422.312 82.4401 421.911 80.7943 421.109V417.578C81.836 418.068 82.9401 418.453 84.1068 418.734C85.2839 419.016 86.3776 419.156 87.3881 419.156C88.8672 419.156 89.9558 418.875 90.6537 418.312C91.362 417.75 91.7162 416.995 91.7162 416.047C91.7162 415.193 91.3933 414.469 90.7474 413.875C90.1016 413.281 88.7683 412.578 86.7474 411.766C84.6641 410.922 83.1954 409.958 82.3412 408.875C81.487 407.792 81.0599 406.49 81.0599 404.969C81.0599 403.062 81.737 401.562 83.0912 400.469C84.4454 399.375 86.2631 398.828 88.5443 398.828C90.7318 398.828 92.9089 399.307 95.0756 400.266L93.8881 403.312C91.8568 402.458 90.0443 402.031 88.4506 402.031C87.2422 402.031 86.3256 402.297 85.7006 402.828C85.0756 403.349 84.7631 404.042 84.7631 404.906C84.7631 405.5 84.8881 406.01 85.1381 406.438C85.3881 406.854 85.7995 407.25 86.3724 407.625C86.9454 408 87.9766 408.495 89.4662 409.109C91.1433 409.807 92.3724 410.458 93.1537 411.062C93.9349 411.667 94.5079 412.349 94.8724 413.109C95.237 413.87 95.4193 414.766 95.4193 415.797ZM109.56 402.031C107.414 402.031 105.727 402.792 104.497 404.312C103.268 405.833 102.654 407.932 102.654 410.609C102.654 413.411 103.242 415.531 104.419 416.969C105.607 418.406 107.32 419.125 109.56 419.125C110.529 419.125 111.466 419.031 112.372 418.844C113.279 418.646 114.221 418.396 115.201 418.094V421.297C113.409 421.974 111.378 422.312 109.107 422.312C105.763 422.312 103.195 421.302 101.404 419.281C99.612 417.25 98.7162 414.349 98.7162 410.578C98.7162 408.203 99.1485 406.125 100.013 404.344C100.888 402.562 102.148 401.198 103.794 400.25C105.44 399.302 107.372 398.828 109.591 398.828C111.925 398.828 114.081 399.318 116.06 400.297L114.716 403.406C113.945 403.042 113.128 402.724 112.263 402.453C111.409 402.172 110.508 402.031 109.56 402.031ZM123.857 409.781H126.451C128.19 409.781 129.451 409.458 130.232 408.812C131.013 408.167 131.404 407.208 131.404 405.938C131.404 404.646 130.982 403.719 130.138 403.156C129.294 402.594 128.023 402.312 126.326 402.312H123.857V409.781ZM123.857 412.875V422H120.122V399.156H126.576C129.523 399.156 131.706 399.708 133.122 400.812C134.539 401.917 135.247 403.583 135.247 405.812C135.247 408.656 133.768 410.682 130.81 411.891L137.263 422H133.013L127.544 412.875H123.857ZM140.591 422V399.156H144.326V422H140.591ZM165.497 406.062C165.497 408.448 164.716 410.276 163.154 411.547C161.591 412.818 159.367 413.453 156.482 413.453H154.107V422H150.372V399.156H156.951C159.805 399.156 161.94 399.74 163.357 400.906C164.784 402.073 165.497 403.792 165.497 406.062ZM154.107 410.312H156.091C158.008 410.312 159.414 409.979 160.31 409.312C161.206 408.646 161.654 407.604 161.654 406.188C161.654 404.875 161.253 403.896 160.451 403.25C159.648 402.604 158.398 402.281 156.701 402.281H154.107V410.312ZM177.951 422H174.216V402.359H167.497V399.156H184.669V402.359H177.951V422Z" fill="white"/>
<path d="M42.0625 68H34.5625V47.4062H13.5V68H6.03125V22.3125H13.5V41H34.5625V22.3125H42.0625V68ZM82.4375 68L77.875 55.3125H60.4062L55.9375 68H48.0625L65.1562 22.125H73.2812L90.375 68H82.4375ZM75.9062 48.875L71.625 36.4375C71.3125 35.6042 70.875 34.2917 70.3125 32.5C69.7708 30.7083 69.3958 29.3958 69.1875 28.5625C68.625 31.125 67.8021 33.9271 66.7188 36.9688L62.5938 48.875H75.9062ZM103.875 43.5625H109.062C112.542 43.5625 115.062 42.9167 116.625 41.625C118.188 40.3333 118.969 38.4167 118.969 35.875C118.969 33.2917 118.125 31.4375 116.438 30.3125C114.75 29.1875 112.208 28.625 108.812 28.625H103.875V43.5625ZM103.875 49.75V68H96.4062V22.3125H109.312C115.208 22.3125 119.573 23.4167 122.406 25.625C125.24 27.8333 126.656 31.1667 126.656 35.625C126.656 41.3125 123.698 45.3646 117.781 47.7812L130.688 68H122.188L111.25 49.75H103.875ZM174.5 44.7188C174.5 52.2604 172.406 58.0312 168.219 62.0312C164.031 66.0104 158 68 150.125 68H137.344V22.3125H151.469C158.74 22.3125 164.396 24.2708 168.438 28.1875C172.479 32.1042 174.5 37.6146 174.5 44.7188ZM166.625 44.9688C166.625 34.0312 161.51 28.5625 151.281 28.5625H144.812V61.7188H150.125C161.125 61.7188 166.625 56.1354 166.625 44.9688ZM227.312 55.5938C227.312 59.6562 225.844 62.8438 222.906 65.1562C219.969 67.4688 215.917 68.625 210.75 68.625C205.583 68.625 201.354 67.8229 198.062 66.2188V59.1562C200.146 60.1354 202.354 60.9062 204.688 61.4688C207.042 62.0312 209.229 62.3125 211.25 62.3125C214.208 62.3125 216.385 61.75 217.781 60.625C219.198 59.5 219.906 57.9896 219.906 56.0938C219.906 54.3854 219.26 52.9375 217.969 51.75C216.677 50.5625 214.01 49.1562 209.969 47.5312C205.802 45.8438 202.865 43.9167 201.156 41.75C199.448 39.5833 198.594 36.9792 198.594 33.9375C198.594 30.125 199.948 27.125 202.656 24.9375C205.365 22.75 209 21.6562 213.562 21.6562C217.938 21.6562 222.292 22.6146 226.625 24.5312L224.25 30.625C220.188 28.9167 216.562 28.0625 213.375 28.0625C210.958 28.0625 209.125 28.5938 207.875 29.6562C206.625 30.6979 206 32.0833 206 33.8125C206 35 206.25 36.0208 206.75 36.875C207.25 37.7083 208.073 38.5 209.219 39.25C210.365 40 212.427 40.9896 215.406 42.2188C218.76 43.6146 221.219 44.9167 222.781 46.125C224.344 47.3333 225.49 48.6979 226.219 50.2188C226.948 51.7396 227.312 53.5312 227.312 55.5938ZM271.031 68H262.375L248.031 47.3125L243.625 50.9062V68H236.156V22.3125H243.625V44.125C245.667 41.625 247.698 39.2188 249.719 36.9062L262.062 22.3125H270.562C262.583 31.6875 256.865 38.3646 253.406 42.3438L271.031 68ZM277.094 68V22.3125H284.562V68H277.094ZM296.656 68V22.3125H304.125V61.5938H323.469V68H296.656ZM331.344 68V22.3125H338.812V61.5938H358.156V68H331.344Z" fill="white"/>
</svg>
