<svg width="958" height="314" viewBox="0 0 958 314" fill="none" xmlns="http://www.w3.org/2000/svg">
<line x1="6.5" y1="180.815" x2="949.03" y2="180.815" stroke="#949494" stroke-width="13" stroke-linecap="round"/>
<path d="M7 180H434" stroke="#6D12C9" stroke-width="13" stroke-linecap="round"/>
<line x1="8.96277" y1="306.545" x2="951.493" y2="306.545" stroke="#949494" stroke-width="13" stroke-linecap="round"/>
<path d="M9 306H503" stroke="#6D12C9" stroke-width="13" stroke-linecap="round"/>
<path d="M21.1406 144.062C21.1406 146.448 20.3594 148.276 18.7969 149.547C17.2344 150.818 15.0104 151.453 12.125 151.453H9.75V160H6.01562V137.156H12.5938C15.4479 137.156 17.5833 137.74 19 138.906C20.4271 140.073 21.1406 141.792 21.1406 144.062ZM9.75 148.312H11.7344C13.651 148.312 15.0573 147.979 15.9531 147.312C16.849 146.646 17.2969 145.604 17.2969 144.188C17.2969 142.875 16.8958 141.896 16.0938 141.25C15.2917 140.604 14.0417 140.281 12.3438 140.281H9.75V148.312ZM29.4375 147.781H32.0312C33.7708 147.781 35.0312 147.458 35.8125 146.812C36.5938 146.167 36.9844 145.208 36.9844 143.938C36.9844 142.646 36.5625 141.719 35.7188 141.156C34.875 140.594 33.6042 140.312 31.9062 140.312H29.4375V147.781ZM29.4375 150.875V160H25.7031V137.156H32.1562C35.1042 137.156 37.2865 137.708 38.7031 138.812C40.1198 139.917 40.8281 141.583 40.8281 143.812C40.8281 146.656 39.349 148.682 36.3906 149.891L42.8438 160H38.5938L33.125 150.875H29.4375ZM59.0938 160H46.1719V137.156H59.0938V140.312H49.9062V146.531H58.5156V149.656H49.9062V156.828H59.0938V160ZM73.7656 140.031C71.6198 140.031 69.9323 140.792 68.7031 142.312C67.474 143.833 66.8594 145.932 66.8594 148.609C66.8594 151.411 67.4479 153.531 68.625 154.969C69.8125 156.406 71.526 157.125 73.7656 157.125C74.7344 157.125 75.6719 157.031 76.5781 156.844C77.4844 156.646 78.4271 156.396 79.4062 156.094V159.297C77.6146 159.974 75.5833 160.312 73.3125 160.312C69.9688 160.312 67.401 159.302 65.6094 157.281C63.8177 155.25 62.9219 152.349 62.9219 148.578C62.9219 146.203 63.3542 144.125 64.2188 142.344C65.0938 140.562 66.3542 139.198 68 138.25C69.6458 137.302 71.5781 136.828 73.7969 136.828C76.1302 136.828 78.2865 137.318 80.2656 138.297L78.9219 141.406C78.151 141.042 77.3333 140.724 76.4688 140.453C75.6146 140.172 74.7135 140.031 73.7656 140.031ZM84.3281 160V137.156H88.0625V160H84.3281ZM107.281 153.797C107.281 155.828 106.547 157.422 105.078 158.578C103.609 159.734 101.583 160.312 99 160.312C96.4167 160.312 94.3021 159.911 92.6562 159.109V155.578C93.6979 156.068 94.8021 156.453 95.9688 156.734C97.1458 157.016 98.2396 157.156 99.25 157.156C100.729 157.156 101.818 156.875 102.516 156.312C103.224 155.75 103.578 154.995 103.578 154.047C103.578 153.193 103.255 152.469 102.609 151.875C101.964 151.281 100.63 150.578 98.6094 149.766C96.526 148.922 95.0573 147.958 94.2031 146.875C93.349 145.792 92.9219 144.49 92.9219 142.969C92.9219 141.062 93.599 139.562 94.9531 138.469C96.3073 137.375 98.125 136.828 100.406 136.828C102.594 136.828 104.771 137.307 106.938 138.266L105.75 141.312C103.719 140.458 101.906 140.031 100.312 140.031C99.1042 140.031 98.1875 140.297 97.5625 140.828C96.9375 141.349 96.625 142.042 96.625 142.906C96.625 143.5 96.75 144.01 97 144.438C97.25 144.854 97.6615 145.25 98.2344 145.625C98.8073 146 99.8385 146.495 101.328 147.109C103.005 147.807 104.234 148.458 105.016 149.062C105.797 149.667 106.37 150.349 106.734 151.109C107.099 151.87 107.281 152.766 107.281 153.797ZM111.703 160V137.156H115.438V160H111.703ZM141.766 148.547C141.766 152.266 140.833 155.156 138.969 157.219C137.115 159.281 134.484 160.312 131.078 160.312C127.63 160.312 124.979 159.292 123.125 157.25C121.281 155.198 120.359 152.286 120.359 148.516C120.359 144.745 121.286 141.849 123.141 139.828C125.005 137.807 127.661 136.797 131.109 136.797C134.505 136.797 137.13 137.823 138.984 139.875C140.839 141.927 141.766 144.818 141.766 148.547ZM124.328 148.547C124.328 151.359 124.896 153.495 126.031 154.953C127.167 156.401 128.849 157.125 131.078 157.125C133.297 157.125 134.969 156.406 136.094 154.969C137.229 153.531 137.797 151.391 137.797 148.547C137.797 145.745 137.234 143.62 136.109 142.172C134.995 140.724 133.328 140 131.109 140C128.87 140 127.177 140.724 126.031 142.172C124.896 143.62 124.328 145.745 124.328 148.547ZM165.703 160H161.125L149.891 141.797H149.766L149.844 142.812C149.99 144.75 150.062 146.521 150.062 148.125V160H146.672V137.156H151.203L162.406 155.266H162.5C162.479 155.026 162.438 154.156 162.375 152.656C162.312 151.146 162.281 149.969 162.281 149.125V137.156H165.703V160Z" fill="white"/>
<path d="M16.7344 268.031C14.5885 268.031 12.901 268.792 11.6719 270.312C10.4427 271.833 9.82812 273.932 9.82812 276.609C9.82812 279.411 10.4167 281.531 11.5938 282.969C12.7812 284.406 14.4948 285.125 16.7344 285.125C17.7031 285.125 18.6406 285.031 19.5469 284.844C20.4531 284.646 21.3958 284.396 22.375 284.094V287.297C20.5833 287.974 18.5521 288.312 16.2812 288.312C12.9375 288.312 10.3698 287.302 8.57812 285.281C6.78646 283.25 5.89062 280.349 5.89062 276.578C5.89062 274.203 6.32292 272.125 7.1875 270.344C8.0625 268.562 9.32292 267.198 10.9688 266.25C12.6146 265.302 14.5469 264.828 16.7656 264.828C19.099 264.828 21.2552 265.318 23.2344 266.297L21.8906 269.406C21.1198 269.042 20.3021 268.724 19.4375 268.453C18.5833 268.172 17.6823 268.031 16.7344 268.031ZM31.0312 275.781H33.625C35.3646 275.781 36.625 275.458 37.4062 274.812C38.1875 274.167 38.5781 273.208 38.5781 271.938C38.5781 270.646 38.1562 269.719 37.3125 269.156C36.4688 268.594 35.1979 268.312 33.5 268.312H31.0312V275.781ZM31.0312 278.875V288H27.2969V265.156H33.75C36.6979 265.156 38.8802 265.708 40.2969 266.812C41.7135 267.917 42.4219 269.583 42.4219 271.812C42.4219 274.656 40.9427 276.682 37.9844 277.891L44.4375 288H40.1875L34.7188 278.875H31.0312ZM60.6875 288H47.7656V265.156H60.6875V268.312H51.5V274.531H60.1094V277.656H51.5V284.828H60.6875V288ZM79.8125 288L77.5312 281.656H68.7969L66.5625 288H62.625L71.1719 265.062H75.2344L83.7812 288H79.8125ZM76.5469 278.438L74.4062 272.219C74.25 271.802 74.0312 271.146 73.75 270.25C73.4792 269.354 73.2917 268.698 73.1875 268.281C72.9062 269.562 72.4948 270.964 71.9531 272.484L69.8906 278.438H76.5469ZM94.6875 288H90.9531V268.359H84.2344V265.156H101.406V268.359H94.6875V288ZM104.922 288V265.156H108.656V288H104.922ZM127.719 265.156H131.594L123.594 288H119.656L111.688 265.156H115.531L120.297 279.359C120.547 280.036 120.812 280.911 121.094 281.984C121.375 283.047 121.557 283.839 121.641 284.359C121.776 283.568 121.984 282.651 122.266 281.609C122.547 280.568 122.776 279.797 122.953 279.297L127.719 265.156ZM134.609 288V265.156H138.344V288H134.609ZM152.281 288H148.547V268.359H141.828V265.156H159V268.359H152.281V288ZM168.969 275.578L174.375 265.156H178.438L170.828 279.141V288H167.078V279.266L159.5 265.156H163.562L168.969 275.578Z" fill="white"/>
<path d="M32.375 55.5938C32.375 59.6562 30.9062 62.8438 27.9688 65.1562C25.0312 67.4688 20.9792 68.625 15.8125 68.625C10.6458 68.625 6.41667 67.8229 3.125 66.2188V59.1562C5.20833 60.1354 7.41667 60.9062 9.75 61.4688C12.1042 62.0312 14.2917 62.3125 16.3125 62.3125C19.2708 62.3125 21.4479 61.75 22.8438 60.625C24.2604 59.5 24.9688 57.9896 24.9688 56.0938C24.9688 54.3854 24.3229 52.9375 23.0312 51.75C21.7396 50.5625 19.0729 49.1562 15.0312 47.5312C10.8646 45.8438 7.92708 43.9167 6.21875 41.75C4.51042 39.5833 3.65625 36.9792 3.65625 33.9375C3.65625 30.125 5.01042 27.125 7.71875 24.9375C10.4271 22.75 14.0625 21.6562 18.625 21.6562C23 21.6562 27.3542 22.6146 31.6875 24.5312L29.3125 30.625C25.25 28.9167 21.625 28.0625 18.4375 28.0625C16.0208 28.0625 14.1875 28.5938 12.9375 29.6562C11.6875 30.6979 11.0625 32.0833 11.0625 33.8125C11.0625 35 11.3125 36.0208 11.8125 36.875C12.3125 37.7083 13.1354 38.5 14.2812 39.25C15.4271 40 17.4896 40.9896 20.4688 42.2188C23.8229 43.6146 26.2812 44.9167 27.8438 46.125C29.4062 47.3333 30.5521 48.6979 31.2812 50.2188C32.0104 51.7396 32.375 53.5312 32.375 55.5938ZM81.7812 45.0938C81.7812 52.5312 79.9167 58.3125 76.1875 62.4375C72.4792 66.5625 67.2188 68.625 60.4062 68.625C53.5104 68.625 48.2083 66.5833 44.5 62.5C40.8125 58.3958 38.9688 52.5729 38.9688 45.0312C38.9688 37.4896 40.8229 31.6979 44.5312 27.6562C48.2604 23.6146 53.5729 21.5938 60.4688 21.5938C67.2604 21.5938 72.5104 23.6458 76.2188 27.75C79.9271 31.8542 81.7812 37.6354 81.7812 45.0938ZM46.9062 45.0938C46.9062 50.7188 48.0417 54.9896 50.3125 57.9062C52.5833 60.8021 55.9479 62.25 60.4062 62.25C64.8438 62.25 68.1875 60.8125 70.4375 57.9375C72.7083 55.0625 73.8438 50.7812 73.8438 45.0938C73.8438 39.4896 72.7188 35.2396 70.4688 32.3438C68.2396 29.4479 64.9062 28 60.4688 28C55.9896 28 52.6042 29.4479 50.3125 32.3438C48.0417 35.2396 46.9062 39.4896 46.9062 45.0938ZM99 68H91.5938V22.3125H117.375V28.625H99V42.9062H116.219V49.25H99V68ZM141.438 68H133.969V28.7188H120.531V22.3125H154.875V28.7188H141.438V68ZM204.875 55.5938C204.875 59.6562 203.406 62.8438 200.469 65.1562C197.531 67.4688 193.479 68.625 188.312 68.625C183.146 68.625 178.917 67.8229 175.625 66.2188V59.1562C177.708 60.1354 179.917 60.9062 182.25 61.4688C184.604 62.0312 186.792 62.3125 188.812 62.3125C191.771 62.3125 193.948 61.75 195.344 60.625C196.76 59.5 197.469 57.9896 197.469 56.0938C197.469 54.3854 196.823 52.9375 195.531 51.75C194.24 50.5625 191.573 49.1562 187.531 47.5312C183.365 45.8438 180.427 43.9167 178.719 41.75C177.01 39.5833 176.156 36.9792 176.156 33.9375C176.156 30.125 177.51 27.125 180.219 24.9375C182.927 22.75 186.562 21.6562 191.125 21.6562C195.5 21.6562 199.854 22.6146 204.188 24.5312L201.812 30.625C197.75 28.9167 194.125 28.0625 190.938 28.0625C188.521 28.0625 186.688 28.5938 185.438 29.6562C184.188 30.6979 183.562 32.0833 183.562 33.8125C183.562 35 183.812 36.0208 184.312 36.875C184.812 37.7083 185.635 38.5 186.781 39.25C187.927 40 189.99 40.9896 192.969 42.2188C196.323 43.6146 198.781 44.9167 200.344 46.125C201.906 47.3333 203.052 48.6979 203.781 50.2188C204.51 51.7396 204.875 53.5312 204.875 55.5938ZM248.594 68H239.938L225.594 47.3125L221.188 50.9062V68H213.719V22.3125H221.188V44.125C223.229 41.625 225.26 39.2188 227.281 36.9062L239.625 22.3125H248.125C240.146 31.6875 234.427 38.3646 230.969 42.3438L248.594 68ZM254.656 68V22.3125H262.125V68H254.656ZM274.219 68V22.3125H281.688V61.5938H301.031V68H274.219ZM308.906 68V22.3125H316.375V61.5938H335.719V68H308.906Z" fill="white"/>
</svg>
